grf
version=1
nRows=32
nColumns=19
inDegrees=yes
endheader
time	ground_force_1_vx	ground_force_1_vy	ground_force_1_vz	ground_force_1_px	ground_force_1_py	ground_force_1_pz	ground_moment_1_mx	ground_moment_1_my	ground_moment_1_mz	ground_force_2_vx	ground_force_2_vy	ground_force_2_vz	ground_force_2_px	ground_force_2_py	ground_force_2_pz	ground_moment_2_mx	ground_moment_2_my	ground_moment_2_mz
8.270000	-11.591387	411.136121	-42.040815	0.100357	0.000000	-1.065969	0.000000	3.615500	0.000000	3.531879	306.582308	31.274506	0.124691	0.000000	-1.405635	-0.000000	-7.310270	-0.000000
8.271000	-11.444381	410.784058	-41.991645	0.100833	0.000000	-1.067096	0.000000	3.622246	0.000000	3.617164	306.624297	31.175211	0.122695	0.000000	-1.403105	-0.000000	-7.304586	-0.000000
8.272000	-11.291472	410.426833	-41.940827	0.097421	0.000000	-1.071783	0.000000	3.629114	0.000000	3.705007	306.661083	31.077533	0.122920	0.000000	-1.406110	-0.000000	-7.298489	-0.000000
8.273000	-11.132532	410.067802	-41.888235	0.097910	0.000000	-1.068034	0.000000	3.636085	0.000000	3.795573	306.690123	30.981801	0.121713	0.000000	-1.412915	-0.000000	-7.292049	-0.000000
8.274000	-10.967486	409.710071	-41.833846	0.097965	0.000000	-1.070085	0.000000	3.643155	0.000000	3.888959	306.709525	30.888219	0.122679	0.000000	-1.405668	-0.000000	-7.285332	-0.000000
8.275000	-10.796277	409.356042	-41.777768	0.097775	0.000000	-1.067606	0.000000	3.650344	0.000000	3.985241	306.717806	30.796871	0.121786	0.000000	-1.400506	-0.000000	-7.278408	-0.000000
8.276000	-10.618830	409.007818	-41.720195	0.099027	0.000000	-1.067069	0.000000	3.657694	0.000000	4.084435	306.713553	30.707729	0.122256	0.000000	-1.397795	-0.000000	-7.271349	-0.000000
8.277000	-10.435139	408.667936	-41.661256	0.098327	0.000000	-1.067399	0.000000	3.665240	0.000000	4.186380	306.695161	30.620671	0.122078	0.000000	-1.407108	-0.000000	-7.264221	-0.000000
8.278000	-10.245311	408.339392	-41.600901	0.098284	0.000000	-1.069337	0.000000	3.673001	0.000000	4.290739	306.660976	30.535514	0.123043	0.000000	-1.408850	-0.000000	-7.257068	-0.000000
8.279000	-10.049483	408.024759	-41.538955	0.097614	0.000000	-1.071798	0.000000	3.681002	0.000000	4.397139	306.609785	30.452058	0.124479	0.000000	-1.410830	-0.000000	-7.249927	-0.000000
8.280000	-9.847757	407.725470	-41.475260	0.095701	0.000000	-1.071590	0.000000	3.689292	0.000000	4.505250	306.541136	30.370069	0.120569	0.000000	-1.408782	-0.000000	-7.242829	-0.000000
8.281000	-9.640245	407.441723	-41.409717	0.095263	0.000000	-1.079660	0.000000	3.697945	0.000000	4.614744	306.455250	30.289251	0.119569	0.000000	-1.408414	-0.000000	-7.235792	-0.000000
8.282000	-9.427153	407.172590	-41.342296	0.098178	0.000000	-1.066271	0.000000	3.707052	0.000000	4.725265	306.352661	30.209276	0.121302	0.000000	-1.404334	-0.000000	-7.228830	-0.000000
8.283000	-9.208821	406.916290	-41.273044	0.096324	0.000000	-1.069176	0.000000	3.716716	0.000000	4.836429	306.233808	30.129865	0.119186	0.000000	-1.404824	-0.000000	-7.221960	-0.000000
8.284000	-8.985687	406.670555	-41.202116	0.096948	0.000000	-1.070382	0.000000	3.727050	0.000000	4.947825	306.098816	30.050822	0.122172	0.000000	-1.403540	-0.000000	-7.215187	-0.000000
8.285000	-8.758238	406.432731	-41.129756	0.097250	0.000000	-1.071312	0.000000	3.738173	0.000000	5.059057	305.947576	29.972024	0.121879	0.000000	-1.406988	0.000000	-7.208505	-0.000000
8.286000	-8.526943	406.199665	-41.056197	0.095638	0.000000	-1.068678	0.000000	3.750190	0.000000	5.169840	305.779822	29.893394	0.115904	0.000000	-1.397422	0.000000	-7.201890	-0.000000
8.287000	-8.292197	405.967772	-40.981578	0.097486	0.000000	-1.068319	0.000000	3.763185	0.000000	5.280056	305.595157	29.814896	0.121225	0.000000	-1.405972	0.000000	-7.195311	-0.000000
8.288000	-8.054320	405.733398	-40.905980	0.094583	0.000000	-1.070466	-0.000000	3.777228	0.000000	5.389704	305.393443	29.736552	0.120840	0.000000	-1.407836	0.000000	-7.188757	-0.000000
8.289000	-7.813617	405.493122	-40.829553	0.095812	0.000000	-1.069698	-0.000000	3.792375	0.000000	5.498836	305.175449	29.658466	0.121021	0.000000	-1.408078	0.000000	-7.182248	-0.000000
8.290000	-7.570488	405.243679	-40.752685	0.095062	0.000000	-1.066026	-0.000000	3.808652	0.000000	5.607559	304.943016	29.580819	0.119832	0.000000	-1.405590	0.000000	-7.175826	-0.000000
8.291000	-7.325493	404.982087	-40.676024	0.098453	0.000000	-1.064390	-0.000000	3.826021	0.000000	5.716020	304.698677	29.503853	0.121043	0.000000	-1.404347	0.000000	-7.169541	-0.000000
8.292000	-7.079296	404.706178	-40.600292	0.096280	0.000000	-1.068870	-0.000000	3.844388	0.000000	5.824358	304.445221	29.427803	0.119425	0.000000	-1.403111	0.000000	-7.163426	-0.000000
8.293000	-6.832579	404.414839	-40.526151	0.093672	0.000000	-1.073742	-0.000000	3.863632	0.000000	5.932646	304.185496	29.352847	0.119619	0.000000	-1.408816	0.000000	-7.157488	-0.000000
8.294000	-6.586009	404.107507	-40.454199	0.093077	0.000000	-1.069442	-0.000000	3.883619	0.000000	6.040869	303.922416	29.279078	0.119243	0.000000	-1.405860	0.000000	-7.151709	-0.000000
8.295000	-6.340220	403.783578	-40.384924	0.098965	0.000000	-1.070422	-0.000000	3.904191	0.000000	6.148944	303.658923	29.206508	0.117992	0.000000	-1.402349	0.000000	-7.146055	-0.000000
8.296000	-6.095748	403.442639	-40.318649	0.094575	0.000000	-1.069577	-0.000000	3.925160	0.000000	6.256728	303.397705	29.135072	0.118833	0.000000	-1.403162	0.000000	-7.140489	-0.000000
8.297000	-5.852930	403.085339	-40.255542	0.093055	0.000000	-1.073746	-0.000000	3.946347	0.000000	6.364010	303.140914	29.064670	0.116668	0.000000	-1.405757	0.000000	-7.134974	-0.000000
8.298000	-5.611854	402.713858	-40.195664	0.093644	0.000000	-1.070919	-0.000000	3.967630	0.000000	6.470495	302.890121	28.995209	0.118835	0.000000	-1.398413	0.000000	-7.129469	-0.000000
8.299000	-5.372429	402.331407	-40.138960	0.089557	0.000000	-1.072602	-0.000000	3.988936	0.000000	6.575791	302.646413	28.926598	0.115695	0.000000	-1.404017	0.000000	-7.123921	-0.000000
8.300000	-5.134473	401.941142	-40.085266	0.090375	0.000000	-1.073216	-0.000000	4.010206	0.000000	6.679456	302.410506	28.858700	0.116615	0.000000	-1.403412	0.000000	-7.118258	-0.000000
8.301000	-4.897748	401.545423	-40.034329	0.091308	0.000000	-1.070391	-0.000000	4.031395	0.000000	6.781089	302.182811	28.791315	0.115031	0.000000	-1.402682	0.000000	-7.112400	-0.000000
